<?xml version="1.0" encoding="UTF-8" standalone="no"?>
<!-- Created with Inkscape (http://www.inkscape.org/) -->

<svg
   width="65mm"
   height="65mm"
   viewBox="0 0 65 65"
   version="1.1"
   id="svg1"
   inkscape:version="1.4.3 (0d15f75, 2025-12-25)"
   sodipodi:docname="logo.svg"
   xmlns:inkscape="http://www.inkscape.org/namespaces/inkscape"
   xmlns:sodipodi="http://sodipodi.sourceforge.net/DTD/sodipodi-0.dtd"
   xmlns="http://www.w3.org/2000/svg"
   xmlns:svg="http://www.w3.org/2000/svg">
  <sodipodi:namedview
     id="namedview1"
     pagecolor="#ffffff"
     bordercolor="#000000"
     borderopacity="0.25"
     inkscape:showpageshadow="2"
     inkscape:pageopacity="0.0"
     inkscape:pagecheckerboard="0"
     inkscape:deskcolor="#d1d1d1"
     inkscape:document-units="mm"
     inkscape:zoom="1.9477379"
     inkscape:cx="150.17421"
     inkscape:cy="174.81818"
     inkscape:window-width="1920"
     inkscape:window-height="991"
     inkscape:window-x="-9"
     inkscape:window-y="-9"
     inkscape:window-maximized="1"
     inkscape:current-layer="layer1" />
  <defs
     id="defs1" />
  <g
     inkscape:label="Livello 1"
     inkscape:groupmode="layer"
     id="layer1">
    <path
       id="path1"
       style="fill:#000000;stroke-width:1.83682"
       d="m 20.765645,1.9666709 c -1.283514,0.007 -2.437182,0.5408101 -3.049842,1.4801501 -0.56987,0.87371 -0.542128,2.5480804 0.0697,4.1979504 l 0.446066,1.19941 -0.793335,0.34269 c -0.508623,0.21997 -0.958098,0.57364 -1.255403,0.9872096 -0.406812,0.56601 -0.455657,0.77661 -0.396662,1.729259 0.05648,0.91225 0.187074,1.28301 0.823851,2.32897 0.416467,0.6841 1.095118,1.66703 1.506764,2.18531 0.392349,0.49397 0.685431,0.92848 0.675649,0.99775 l -0.0013,0.001 v 10e-4 0.001 l -0.0013,0.001 v 10e-4 l -0.0013,0.001 h -0.0013 l -0.0013,0.001 h -0.0013 c -0.07975,0.0106 -0.756218,-0.32452 -1.537279,-0.76315 -1.890056,-1.0617 -3.459592,-1.65318 -5.137529,-1.93897 -2.5740377,-0.4384 -3.8963226,-0.25769 -5.0259246,0.68802 -1.0857306,0.90896 -1.2024495,2.30539 -0.315304,3.76694 0.5739658,0.9456 1.6092996,2.05859 3.7458316,4.03056 7.603498,7.01781 10.894512,9.47684 14.814812,11.06491 2.529479,1.02468 4.07257,1.31578 6.496359,1.22577 2.250134,-0.0836 3.420148,-0.35969 6.393212,-1.50783 0.959281,-0.37046 1.808101,-0.67352 1.885999,-0.67352 0.07772,0 0.08395,0.17558 0.01336,0.39146 -0.102396,0.31233 -0.298628,0.42802 -0.956076,0.56412 -0.454423,0.0941 -1.077869,0.33347 -1.386164,0.53249 -0.680382,0.43923 -2.568772,2.41747 -3.299766,3.45588 -0.590413,0.83872 -0.702095,0.91615 -8.364931,5.86395 -4.955405,2.96791 -11.264423,5.58936 -14.339693,10.36371 5.827107,0.48046 18.658638,-13.6212 24.403154,-14.85162 1.27325,-0.27272 3.256136,-1.00774 3.465419,-1.28377 0.06309,-0.0833 0.38852,-0.15025 0.723591,-0.15025 0.505405,0 0.704626,-0.10661 1.16967,-0.62211 0.308308,-0.34178 0.560852,-0.77463 0.560852,-0.96217 0,-0.33469 0.03562,-0.34095 1.951379,-0.34401 1.667176,-0.003 2.179144,-0.0652 3.497371,-0.42968 0.84905,-0.23474 1.57474,-0.40305 1.612836,-0.373 0.03816,0.03 -0.502568,0.77324 -1.200172,1.6515 -1.548829,1.9499 -2.95541,3.85012 -2.95541,3.99101 0,0.13431 1.267233,1.46297 3.410189,3.57319 1.613904,1.58925 1.860634,1.92466 2.117032,2.87991 0.06017,0.22393 0.229851,0.40728 0.377772,0.40728 0.337996,0 0.343631,-0.60975 0.01145,-1.36812 -0.13337,-0.30462 -0.685177,-1.00487 -1.226325,-1.55528 -3.676978,-3.73985 -3.694532,-3.76142 -3.40739,-4.21114 0.37505,-0.58741 3.111102,-4.16194 3.651385,-4.76997 0.282436,-0.31786 0.514373,-0.73389 0.514373,-0.92526 0,-0.40571 0.295155,-0.46622 0.430089,-0.0883 0.05088,0.14251 0.148901,1.37429 0.217945,2.73756 0.07225,1.42749 0.211585,2.57348 0.328381,2.70197 0.111554,0.12272 1.796563,0.65279 3.744381,1.17833 3.154936,0.85122 3.608977,1.01403 4.154132,1.49729 0.455339,0.40364 0.648925,0.49379 0.75847,0.34927 0.0809,-0.10682 0.07848,-0.29787 -0.0064,-0.4244 -0.425549,-0.63852 -1.305113,-1.05228 -3.63546,-1.71081 -1.348489,-0.38107 -2.859908,-0.81034 -3.359347,-0.95294 L 52.172786,40.17153 52.06085,38.40932 c -0.209359,-3.30818 -0.186132,-5.02644 0.06538,-4.82138 0.124402,0.10149 0.880188,1.19766 1.679667,2.43573 l 1.454459,2.25121 3.632509,0.11994 c 3.107057,0.1023 3.718674,0.16114 4.235489,0.4086 0.724278,0.34678 1.104022,0.23406 0.634958,-0.18848 -0.593987,-0.53509 -1.209357,-0.66943 -3.508998,-0.76842 -1.248597,-0.0537 -2.745834,-0.13877 -3.327368,-0.18848 l -1.057848,-0.0909 -1.750873,-2.85882 c -0.963161,-1.57287 -1.696394,-2.90375 -1.630263,-2.95767 0.06614,-0.0539 0.476187,0.0427 0.912484,0.21484 1.507794,0.59505 3.179765,0.30703 4.283444,-0.7381 0.389398,-0.36875 0.562645,-0.68895 0.563764,-1.0373 8.52e-4,-0.2769 0.0025,-0.72317 0.0038,-0.99248 0.0013,-0.26931 -0.122494,-0.68719 -0.276076,-0.92921 -0.153492,-0.24203 -0.229138,-0.50657 -0.168553,-0.58653 0.140277,-0.18503 -0.884881,-1.02938 -1.249577,-1.02938 -0.164254,0 -0.298323,-0.1635 -0.332743,-0.40728 -0.07721,-0.54651 -0.748446,-0.62889 -1.352737,-0.16607 -0.334714,0.25634 -0.616527,0.32811 -1.152231,0.29656 -0.981655,-0.0578 -2.264673,0.42977 -2.624128,0.99644 -0.15694,0.24739 -0.286239,0.75248 -0.286239,1.12296 0,0.78292 -0.173209,0.83429 -1.27283,0.37696 -1.131293,-0.47051 -2.827623,-0.74529 -3.469768,-0.5628 -0.284471,0.0808 -0.541263,0.12458 -0.589917,0.10281 h -0.0013 c -5.72e-4,-4.3e-4 -0.0038,-0.002 -0.0051,-0.003 -0.02913,-0.0298 -0.802596,-1.23892 -1.720358,-2.68616 C 40.702468,20.91649 39.985682,20.07187 36.44304,17.10128 34.404185,15.39155 34.030254,14.99445 33.093933,13.5478 31.37575,10.893181 28.481982,6.8034714 27.646633,5.8491614 26.195596,4.191501 23.823349,2.610371 22.077271,2.137571 21.635441,2.0179409 21.193051,1.9614309 20.765213,1.9635909 Z m -0.09146,0.5786101 c 0.528428,-0.0112 1.102051,0.0982 1.721808,0.32951 1.170624,0.43691 1.057874,0.3397 2.846437,2.4594604 1.314004,1.55734 4.521423,6.1448486 4.768751,6.8208386 0.07238,0.19784 0.510505,1.15934 0.974964,2.13653 l 0.84564,1.77671 2.11412,1.77672 c 1.663156,1.39721 2.336503,2.09251 3.151564,3.25686 0.983119,1.40443 3.376608,4.12451 4.858834,5.52125 0.374567,0.35298 0.68145,0.67071 0.68145,0.70647 0,0.14749 -0.219382,0.0254 -1.397778,-0.77896 -4.0562,-2.7686 -4.378195,-3.09533 -5.679797,-5.7809 C 35.009566,19.6337 34.84371,19.45053 33.162733,18.14556 29.318931,15.16153 25.796209,13.48836 21.752322,12.7258 l -0.99968,-0.18848 -0.685813,-1.41821 C 18.587633,8.0617314 18.058823,6.5261114 18.042796,5.2340814 18.030076,4.230421 18.092659,3.953461 18.403142,3.614211 c 0.635531,-0.69435 1.39035,-1.05008 2.271046,-1.06893 z m 6.663475,4.1953104 0.382135,0.29788 c 0.432812,0.33714 2.800505,3.6740296 4.565332,6.4346486 1.103132,1.72558 1.342039,1.98327 3.641222,3.92379 1.353208,1.14213 2.715828,2.34607 3.028053,2.67561 1.058752,1.11749 2.466757,3.09343 4.091651,5.74269 0.890784,1.45235 1.580006,2.67149 1.532916,2.70988 v 0.001 h -0.0013 l -0.0013,0.001 h -0.0013 -0.0013 c -0.08764,-0.01 -0.69043,-0.582 -1.375887,-1.31014 -0.713326,-0.75773 -1.984896,-2.09647 -2.826097,-2.9748 -0.841201,-0.87833 -2.044337,-2.34051 -2.673521,-3.25028 -0.939272,-1.35815 -1.513708,-1.96615 -3.20822,-3.39658 L 32.426895,15.85285 31.297903,13.5911 c -0.620737,-1.24393 -1.707994,-3.094039 -2.416156,-4.1123086 -0.708162,-1.01828 -1.345092,-2.05208 -1.415217,-2.29602 z m -8.965024,2.73888 c 0.110028,2.1e-4 0.436933,0.5502096 0.725042,1.2218196 0.597574,1.392949 2.848612,5.512419 4.00448,7.328279 0.716952,1.12635 0.746755,1.21939 0.393762,1.19414 -0.210555,-0.0152 -0.793132,-0.0512 -1.294632,-0.0804 -0.900845,-0.0525 -0.923156,-0.0665 -1.906338,-1.15196 -1.412978,-1.56007 -3.205981,-4.01503 -3.567115,-4.88464 -0.365701,-0.88059 -0.381563,-1.94644 -0.03778,-2.529309 0.244809,-0.41506 1.292456,-1.0986796 1.682579,-1.0979296 z M 21.37744,13.23983 c 0.279129,-0.005 0.96054,0.15805 2.462839,0.55884 1.968043,0.52506 3.797424,1.30733 5.614404,2.40279 1.585462,0.95587 4.842247,3.46689 5.140709,3.96333 0.114099,0.18985 0.556298,1.01115 0.983691,1.82548 0.932912,1.77752 1.367466,2.18191 5.28601,4.92154 1.574129,1.10054 2.862413,2.05879 2.862413,2.12995 0,0.16837 0.0388,0.17412 -2.1795,-0.29919 -3.163254,-0.67494 -3.839133,-0.90283 -5.44875,-1.8413 -0.849049,-0.49503 -2.996801,-1.54537 -4.773114,-2.33292 -3.221741,-1.42841 -3.233431,-1.4346 -4.409855,-2.65189 -0.64862,-0.67115 -1.519471,-1.6957 -1.935403,-2.27625 -0.891827,-1.24479 -3.773434,-6.05316 -3.773434,-6.29626 0,-0.0643 0.04312,-0.10193 0.16999,-0.10412 z m -11.268023,1.72135 c 1.183942,0.006 3.077051,0.89635 6.924999,3.2595 2.8161,1.72946 4.650048,3.03959 6.71433,4.7937 1.674566,1.42296 1.798065,1.49328 4.168658,2.41596 1.381713,0.53779 3.274949,1.43313 4.359,2.06009 1.053956,0.60956 2.977644,1.60765 4.276181,2.21826 1.298549,0.6106 2.439141,1.17184 2.534045,1.24818 0.06805,0.0549 0.108375,0.10026 0.109011,0.11863 v 10e-4 0.001 10e-4 l -0.0013,0.001 -0.0013,0.001 -0.0013,10e-4 h -0.0013 c -0.0025,4.4e-4 -0.0076,6.5e-4 -0.01145,0 -0.664049,-0.0999 -5.800218,-1.29862 -6.03723,-1.40898 -0.178246,-0.083 -1.127618,-0.79702 -2.111207,-1.58691 -1.913499,-1.53667 -2.548266,-1.84302 -5.668158,-2.73888 -2.902596,-0.83348 -4.986848,-1.11117 -7.677655,-1.0228 -1.332627,0.0438 -2.819,0.18239 -3.378236,0.3137 l -0.999412,0.23445 -1.240852,-1.07156 C 10.266179,22.24653 8.0057411,19.92144 7.4937601,19.09776 6.118598,16.88543 7.3455209,14.94536 10.110613,14.95913 Z m 6.079359,1.91379 c 0.39689,-0.0296 3.341487,1.69555 7.173472,4.20981 1.835093,1.20405 3.756656,2.39571 4.268917,2.64793 0.512261,0.25224 1.421794,0.76378 2.021123,1.13747 0.599317,0.37368 2.374295,1.20379 3.9449,1.84393 2.324534,0.94743 3.292172,1.447 5.20029,2.68484 1.289239,0.83636 2.39943,1.59373 2.46719,1.68313 0.04566,0.0601 0.06576,0.10285 0.05088,0.12389 -6.74e-4,7.5e-4 -0.0038,0.003 -0.0038,0.004 -0.08853,0.061 -0.715693,-0.19432 -2.487541,-0.98325 -3.491304,-1.55454 -4.855998,-2.24315 -6.621321,-3.34122 -0.893519,-0.5558 -2.11875,-1.19309 -2.722938,-1.41558 -3.558873,-1.31056 -3.558695,-1.31 -5.730639,-3.11056 -1.719188,-1.42523 -4.894196,-3.62777 -7.217051,-5.00722 -0.253294,-0.15043 -0.426986,-0.35439 -0.386498,-0.4534 0.0013,-0.004 0.0038,-0.008 0.0076,-0.0106 0.0076,-0.006 0.02162,-0.0121 0.03625,-0.0133 z m 6.333632,2.88386 c 0.02557,-0.0202 0.437963,4.9e-4 0.916847,0.0448 0.71442,0.0661 0.917012,0.15315 1.127528,0.48504 0.141116,0.22246 0.546147,0.71273 0.899408,1.09002 0.314617,0.33602 0.529255,0.6176 0.520173,0.67483 v 0.001 0.001 l -0.0013,10e-4 v 0.001 h -0.0013 v 0.001 l -0.0013,10e-4 -0.0013,0.001 h -0.0013 -0.0013 l -0.0013,0.001 h -0.0013 -0.0013 c -0.155197,-8.7e-4 -3.521311,-2.24951 -3.45088,-2.30524 z m -3.145739,5.13244 c 0.806628,0.007 1.547061,0.0445 2.087954,0.12124 1.870671,0.26558 4.237588,0.86993 5.910806,1.50915 1.199715,0.45833 1.861372,0.84184 2.99755,1.73849 2.485977,1.96189 1.964647,1.77326 9.690066,3.52048 0.857902,0.19402 0.940557,0.24665 0.726504,0.45867 -0.369695,0.36619 -4.879707,2.07376 -6.36706,2.41069 -4.456945,1.00965 -8.59295,-0.0757 -13.732312,-3.60483 -1.514675,-1.0401 -6.747745,-5.37938 -6.747745,-5.59506 0,-0.32465 3.014328,-0.58053 5.434237,-0.55885 z m 36.141946,2.05218 c 0.223796,-0.0132 0.615102,0.10985 0.826763,0.30051 0.466291,0.42006 0.605563,2.9788 0.190343,3.49543 -0.339434,0.42233 -0.945111,0.5052 -0.713415,0.0975 0.08103,-0.14251 0.177495,-0.74319 0.215032,-1.33517 0.05495,-0.86609 -0.0051,-1.20031 -0.309479,-1.71213 -0.207743,-0.34984 -0.377784,-0.68237 -0.377784,-0.7381 0,-0.0681 0.06678,-0.10212 0.16854,-0.10808 z m -16.479939,1.85447 h 0.0013 c 0.0379,-0.0309 0.719839,0.10315 1.515476,0.29788 0.795651,0.19474 1.808572,0.43095 2.252157,0.52458 l 0.806412,0.17003 -0.714878,0.49953 c -0.387478,0.27034 -0.746246,0.49233 -0.804962,0.49954 h -0.0013 c -0.04999,3.3e-4 -0.261765,-0.11326 -0.470768,-0.25306 -0.20899,-0.13979 -0.890974,-0.57607 -1.515477,-0.96876 -0.585477,-0.36814 -1.044148,-0.69554 -1.06796,-0.7605 l -0.0013,-0.001 v -10e-4 -0.001 -0.001 -10e-4 -0.001 h 0.0013 z M 12.701568,42.69398 c -1.933164,-0.009 -3.8802569,0.40901 -5.6391059,1.22577 -0.7786819,0.36162 -2.1584231,1.26117 -2.7360014,1.7833 -1.8615632,1.68286 -3.0049791,3.80401 -3.2198458,5.97466 -0.066526,0.67262 -0.017554,0.87061 0.2571735,1.05443 0.4829667,0.3232 1.1671388,-0.005 1.1783833,-0.56412 0.0089,-0.45181 0.2368596,-1.58312 0.4184762,-2.08118 0.663591,-1.81877 1.7767587,-3.18236 3.5249737,-4.32052 1.3804155,-0.89867 2.6564249,-1.39687 4.2151624,-1.64491 1.235051,-0.19647 2.515462,-0.19262 3.831565,0.012 0.683396,0.10616 0.896456,0.0747 1.112989,-0.16607 0.146153,-0.16249 0.195113,-0.37077 0.132225,-0.56676 -0.100107,-0.31206 -0.342118,-0.42813 -1.155144,-0.55489 -0.633902,-0.0988 -1.27648,-0.14871 -1.920864,-0.15158 z m -0.08141,2.91417 c -0.429517,0.003 -0.854748,0.0372 -1.290269,0.10147 -3.6035834,0.53178 -6.2822302,2.8455 -6.8552674,5.92193 -0.048972,0.26298 -0.092856,0.61074 -0.097308,0.77237 -0.00763,0.25906 0.01361,0.31732 0.1714659,0.4969 0.1592421,0.18117 0.2066878,0.20785 0.4402529,0.23593 0.301401,0.0363 0.5771457,-0.0607 0.7352175,-0.25833 0.066526,-0.0831 0.1344634,-0.36695 0.1801792,-0.76051 0.1453517,-1.25063 0.7106552,-2.36343 1.6694908,-3.28586 0.4485971,-0.43169 1.4888028,-1.11083 2.0836039,-1.36022 1.2942502,-0.54264 2.6328922,-0.70791 4.0843882,-0.50349 0.985916,0.13885 1.153681,0.10384 1.383264,-0.28469 0.07212,-0.12211 0.101506,-0.26059 0.07848,-0.36378 h 0.0013 c -0.08726,-0.38876 -0.33745,-0.51348 -1.268479,-0.63134 -0.452083,-0.0573 -0.886891,-0.0838 -1.316409,-0.0804 z m 0.212132,2.87464 c -2.40939,-0.0846 -4.530187,1.31795 -5.0390008,3.40053 -0.049226,0.20125 -0.088404,0.52683 -0.087259,0.72361 0.00127,0.30508 0.024677,0.38364 0.1569269,0.53379 0.212399,0.24115 0.4673211,0.31971 0.781722,0.24121 0.3943335,-0.0985 0.5283644,-0.28265 0.5579512,-0.76973 0.044902,-0.73899 0.3207355,-1.3552 0.8398267,-1.8703 0.328037,-0.32547 0.598185,-0.49819 1.083937,-0.69856 0.719915,-0.29696 1.530219,-0.37306 2.265233,-0.2122 0.22802,0.05 0.510544,0.0734 0.626246,0.0527 0.368372,-0.0656 0.605231,-0.3661 0.563764,-0.7157 -0.04579,-0.38614 -0.346939,-0.54073 -1.264116,-0.64847 -0.162779,-0.0191 -0.324666,-0.0313 -0.485295,-0.0369 z m 11.655983,4.75152 c -0.396826,0.0227 -0.746945,0.3506 -0.703252,0.76841 0.04706,0.44986 -0.03816,1.59676 -0.156927,2.11018 -0.434007,1.87491 -1.369476,3.34346 -2.965572,4.65266 -1.260313,1.03374 -2.467456,1.65865 -3.985592,2.06405 -1.202869,0.32123 -2.476665,0.44856 -3.809762,0.37959 -0.692224,-0.0358 -0.900069,0.0167 -1.0854,0.27811 -0.125038,0.17636 -0.146331,0.38896 -0.05953,0.5773 0.138153,0.29988 0.392579,0.39058 1.216149,0.43363 2.56853,0.13424 5.183042,-0.51742 7.378341,-1.83866 0.728947,-0.43873 1.989959,-1.47315 2.499167,-2.05086 1.641227,-1.86202 2.513948,-4.08582 2.458476,-6.26463 -0.0173,-0.67514 -0.09082,-0.86815 -0.386498,-1.02279 -0.129973,-0.068 -0.267299,-0.0945 -0.399574,-0.087 z m -3.253274,0.0554 c -0.303983,-0.005 -0.566321,0.11963 -0.698901,0.33214 -0.05584,0.0893 -0.08764,0.37796 -0.08433,0.77369 0.01018,1.25753 -0.412587,2.42176 -1.251028,3.43612 -0.39226,0.4747 -1.341848,1.25473 -1.901974,1.56319 -1.218808,0.67118 -2.529581,0.97247 -3.997218,0.91735 -0.996868,-0.0374 -1.158235,0.0136 -1.33821,0.42309 -0.0566,0.12869 -0.0692,0.27018 -0.03345,0.37037 0.134921,0.37741 0.39848,0.47471 1.338211,0.4969 0.912649,0.0217 1.736754,-0.0694 2.58635,-0.28601 3.514823,-0.89587 5.889728,-3.46822 6.077896,-6.58359 0.01615,-0.26631 0.01717,-0.61526 0.0013,-0.77633 -0.0248,-0.25816 -0.05203,-0.31478 -0.231021,-0.47712 -0.180676,-0.16378 -0.232306,-0.18572 -0.467868,-0.1898 z m -3.337544,0.0738 c -0.103414,-0.005 -0.211966,0.0141 -0.325467,0.0554 -0.379642,0.13805 -0.488665,0.33412 -0.457705,0.82113 0.04694,0.73889 -0.152462,1.37935 -0.604443,1.94411 -0.285628,0.35686 -0.531646,0.55669 -0.989491,0.80532 -0.678549,0.36849 -1.475714,0.52774 -2.226004,0.44286 -0.232764,-0.0264 -0.515289,-0.0217 -0.627695,0.0106 -0.357904,0.10269 -0.555293,0.42527 -0.470769,0.76842 0.09337,0.37903 0.41059,0.50183 1.335298,0.51535 2.626049,0.0379 4.808412,-1.64266 5.072428,-3.90534 0.02391,-0.20499 0.02264,-0.53216 -0.0025,-0.72756 -0.03956,-0.30299 -0.07085,-0.37964 -0.220845,-0.51535 -0.150579,-0.13623 -0.310088,-0.20721 -0.482407,-0.21484 z" />
  </g>
</svg>
